# File created by Blade
# Date/Time:  Tue Jan 27 18:02:00 2015
#---------------------------------------------------------
:version 1.10
:name HOM
:units
  mass 1.0
  length 1.000000
  angle deg
:documentation
     Acclaim Skeleton File
:root
   axis xyz
   order TX TY TZ RX RY RZ
   position 0.000000 0.000000 0.000000
   orientation 0 0 0
:bonedata
   begin
      id 1
      name Spine_dum
      direction 0.000000 1.000000 0.000000
      length 5.195262
      axis 0.0 0.0 0.0 xyz
   end
   begin
      id 2
      name LeftUpLeg_dum
      direction 1.000000 0.000000 0.000000
      length 3.351363
      axis 0.0 0.0 0.0 xyz
   end
   begin
      id 3
      name RightUpLeg_dum
      direction -1.000000 0.000000 0.000000
      length 3.351363
      axis 0.0 0.0 0.0 xyz
   end
   begin
      id 4
      name Spine
      direction 0.000000 1.000000 0.000000
      length 0.000000
      axis 0.0 0.0 0.0 xyz
      dof rx ry rz
   end
   begin
      id 5
      name Spine_dum1
      direction 0.000000 1.000000 0.000000
      length 15.653875
      axis 0.0 0.0 0.0 xyz
   end
   begin
      id 6
      name Spine_dum2
      direction 0.000000 1.000000 0.000000
      length 10.329768
      axis 0.0 0.0 0.0 xyz
   end
   begin
      id 7
      name Spine_dum3
      direction 0.000000 1.000000 0.000000
      length 10.329768
      axis 0.0 0.0 0.0 xyz
   end
   begin
      id 8
      name Head
      direction 0.000000 1.000000 0.000000
      length 4.527550
      axis 0.0 0.0 0.0 xyz
      dof rx ry rz
   end
   begin
      id 9
      name LeftShoulder
      direction 1.000000 0.000000 0.000000
      length 6.996006
      axis 0.0 0.0 -90.0 xyz
      dof rx ry rz
   end
   begin
      id 10
      name LeftArm
      direction 1.000000 0.000000 0.000000
      length 10.209302
      axis 0.0 0.0 -90.0 xyz
      dof rx ry rz
   end
   begin
      id 11
      name LeftForeArm
      direction 1.000000 0.000000 0.000000
      length 8.563163
      axis 0.0 0.0 -90.0 xyz
      dof ry rz rx
   end
   begin
      id 12
      name LeftHand
      direction 0.000000 0.000000 0.000000
      length 0.000000
      axis 0.0 0.0 -90.0 xyz
      dof rx ry rz
   end
   begin
      id 13
      name LeftHand_dum1
      direction 0.000000 0.000000 0.000000
      length 0.000000
      axis 0.0 0.0 -90.0 xyz
   end
   begin
      id 14
      name LeftHand_dum2
      direction 1.000000 0.000000 0.000000
      length 3.937000
      axis 0.0 0.0 -90.0 xyz
   end
   begin
      id 15
      name LeftHandThumb1
      direction 0.000000 0.000000 1.000000
      length 3.937000
      axis 0.0 0.0 -90.0 xyz
      dof rx rz ry
   end
   begin
      id 16
      name RightShoulder
      direction -1.000000 0.000000 0.000000
      length 6.996006
      axis 0.0 0.0 90.0 xyz
      dof rx ry rz
   end
   begin
      id 17
      name RightArm
      direction -1.000000 0.000000 0.000000
      length 10.209302
      axis 0.0 0.0 90.0 xyz
      dof rx ry rz
   end
   begin
      id 18
      name RightForeArm
      direction -1.000000 0.000000 0.000000
      length 8.563163
      axis 0.0 0.0 90.0 xyz
      dof ry rz rx
   end
   begin
      id 19
      name RightHand
      direction 0.000000 0.000000 0.000000
      length 0.000000
      axis 0.0 0.0 90.0 xyz
      dof rx ry rz
   end
   begin
      id 20
      name RightHand_dum1
      direction 0.000000 0.000000 0.000000
      length 0.000000
      axis 0.0 0.0 90.0 xyz
   end
   begin
      id 21
      name RightHand_dum2
      direction -1.000000 0.000000 0.000000
      length 3.937000
      axis 0.0 0.0 90.0 xyz
   end
   begin
      id 22
      name RightHandThumb1
      direction 0.000000 0.000000 1.000000
      length 3.937000
      axis 0.0 0.0 90.0 xyz
      dof rx rz ry
   end
   begin
      id 23
      name LeftUpLeg
      direction 0.000000 -1.000000 0.000000
      length 16.346831
      axis 0.0 0.0 0.0 xyz
      dof rx ry rz
   end
   begin
      id 24
      name LeftLeg
      direction 0.000000 -1.000000 0.000000
      length 13.959795
      axis 0.0 0.0 0.0 xyz
      dof rx ry rz
   end
   begin
      id 25
      name LeftFoot
      direction 0.000000 -0.258819 0.965926
      length 5.165550
      axis 15.0 0.0 0.0 xyz
      dof rx ry rz
   end
   begin
      id 26
      name LeftToeBase
      direction 0.000000 0.000000 1.000000
      length 2.952750
      axis 0.0 0.0 0.0 xyz
      dof rx ry rz
   end
   begin
      id 27
      name RightUpLeg
      direction 0.000000 -1.000000 0.000000
      length 16.346831
      axis 0.0 0.0 0.0 xyz
      dof rx ry rz
   end
   begin
      id 28
      name RightLeg
      direction 0.000000 -1.000000 0.000000
      length 13.959795
      axis 0.0 0.0 0.0 xyz
      dof rx ry rz
   end
   begin
      id 29
      name RightFoot
      direction 0.000000 -0.258819 0.965926
      length 5.165550
      axis 15.0 0.0 0.0 xyz
      dof rx ry rz
   end
   begin
      id 30
      name RightToeBase
      direction 0.000000 0.000000 1.000000
      length 2.952750
      axis 0.0 0.0 0.0 xyz
      dof rx ry rz
   end
:hierarchy
   begin
      root Spine_dum LeftUpLeg_dum RightUpLeg_dum
      Spine_dum Spine
      LeftUpLeg_dum LeftUpLeg
      RightUpLeg_dum RightUpLeg
      Spine Spine_dum1 Spine_dum2 Spine_dum3
      Spine_dum1 Head
      Spine_dum2 LeftShoulder
      Spine_dum3 RightShoulder
      LeftShoulder LeftArm
      LeftArm LeftForeArm
      LeftForeArm LeftHand
      LeftHand LeftHand_dum1 LeftHand_dum2
      LeftHand_dum1 LeftHandThumb1
      RightShoulder RightArm
      RightArm RightForeArm
      RightForeArm RightHand
      RightHand RightHand_dum1 RightHand_dum2
      RightHand_dum1 RightHandThumb1
      LeftUpLeg LeftLeg
      LeftLeg LeftFoot
      LeftFoot LeftToeBase
      RightUpLeg RightLeg
      RightLeg RightFoot
      RightFoot RightToeBase
   end

# File created by Blade
# Date/Time:  Tue Jan 27 18:01:49 2015
# Frame Rate: 120.000 fps
#------------------------------------------------------
:FULLY-SPECIFIED
:DEGREES
1070
root -1.525199 31.970258 -6.150722 6.474413 27.417593 5.506817
Spine -7.854979 -2.027376 -3.508461
Head 4.333349 -9.418326 -12.052119
LeftShoulder -11.008692 14.342008 6.677684
LeftArm 24.400245 41.707259 -72.337309
LeftForeArm -2.172199 -0.000000 13.041503
LeftHand -10.995788 -0.000000 -6.720976
LeftHandThumb1 -26.253704 0.000000 33.147579
RightShoulder -7.273850 38.706869 -49.232613
RightArm 91.037109 47.164981 128.893775
RightForeArm 43.959114 -0.000000 99.022265
RightHand 0.424197 0.000000 12.183091
RightHandThumb1 -24.326973 -0.000000 -32.862282
LeftUpLeg -2.569095 -12.342332 -0.615719
LeftLeg 0.261751 -0.000000 -0.000000
LeftFoot -11.162369 9.488030 -23.771726
LeftToeBase 8.646624 -0.000000 -0.000000
RightUpLeg 5.837226 -15.569402 -3.613531
RightLeg -3.778198 -0.000000 0.000000
RightFoot -17.815159 -21.499136 12.391449
RightToeBase 5.444507 -0.000000 -0.000000
1071
root -1.523953 31.969572 -6.147527 6.475898 27.423763 5.511327
Spine -7.854841 -2.037328 -3.501359
Head 4.366570 -9.420575 -12.059956
LeftShoulder -11.020655 14.351272 6.660117
LeftArm 24.406025 41.695225 -72.326102
LeftForeArm -2.177819 -0.000000 13.031466
LeftHand -11.043241 -0.000000 -6.834551
LeftHandThumb1 -26.253704 0.000000 33.147579
RightShoulder -7.271194 38.629598 -49.233243
RightArm 91.094566 47.116452 128.910987
RightForeArm 43.848157 0.000000 99.075175
RightHand 0.432684 -0.000000 12.262710
RightHandThumb1 -24.326973 -0.000000 -32.862282
LeftUpLeg -2.567562 -12.341709 -0.620646
LeftLeg 0.273501 -0.000000 -0.000000
LeftFoot -11.176562 9.484628 -23.759615
LeftToeBase 8.612988 -0.000000 -0.000000
RightUpLeg 5.848527 -15.577157 -3.618582
RightLeg -3.783753 -0.000000 0.000000
RightFoot -17.818437 -21.503753 12.370128
RightToeBase 5.456462 -0.000000 -0.000000
1072
root -1.522358 31.969041 -6.143935 6.479699 27.430365 5.516369
Spine -7.854666 -2.037304 -3.501583
Head 4.390898 -9.426414 -12.055387
LeftShoulder -11.028004 14.355092 6.647320
LeftArm 24.402360 41.690399 -72.318270
LeftForeArm -2.186174 0.000000 13.045227
LeftHand -11.026921 -0.000000 -6.711183
LeftHandThumb1 -26.253704 0.000000 33.147579
RightShoulder -7.282330 38.620662 -49.235717
RightArm 91.070718 47.116549 128.856849
RightForeArm 43.762164 -0.000000 99.124287
RightHand 0.396550 -0.000000 12.303104
RightHandThumb1 -24.326973 -0.000000 -32.862282
LeftUpLeg -2.560653 -12.349575 -0.625229
LeftLeg 0.271123 -0.000000 -0.000000
LeftFoot -11.179209 9.475706 -23.779598
LeftToeBase 8.617068 -0.000000 -0.000000
RightUpLeg 5.856786 -15.577288 -3.622582
RightLeg -3.786634 -0.000000 0.000000
RightFoot -17.822992 -21.506059 12.376156
RightToeBase 5.423951 -0.000000 -0.000000
1073
root -1.520784 31.968484 -6.140744 6.484848 27.438209 5.521360
Spine -7.853358 -2.037180 -3.496368
Head 4.416660 -9.415371 -12.066298
LeftShoulder -11.034066 14.358402 6.637851
LeftArm 24.399490 41.680356 -72.318619
LeftForeArm -2.190620 -0.000000 13.040725
LeftHand -11.060300 -0.000000 -6.813550
LeftHandThumb1 -26.253704 0.000000 33.147579
RightShoulder -7.306594 38.642103 -49.254732
RightArm 90.990138 47.118582 128.751548
RightForeArm 43.645233 -0.000000 99.172776
RightHand 0.442387 -0.000000 12.250943
RightHandThumb1 -24.326973 -0.000000 -32.862282
LeftUpLeg -2.561149 -12.346277 -0.629237
LeftLeg 0.276731 -0.000000 -0.000000
LeftFoot -11.182602 9.459993 -23.770729
LeftToeBase 8.630440 -0.000000 -0.000000
RightUpLeg 5.865409 -15.586825 -3.627020
RightLeg -3.793425 -0.000000 0.000000
RightFoot -17.820421 -21.510986 12.378169
RightToeBase 5.387921 -0.000000 -0.000000
1074
root -1.519198 31.968159 -6.138308 6.494945 27.449107 5.532954
Spine -7.853274 -2.043485 -3.494321
Head 4.448572 -9.377795 -12.051316
LeftShoulder -11.035606 14.348717 6.628082
LeftArm 24.381827 41.675335 -72.325418
LeftForeArm -2.186616 0.000000 13.040421
LeftHand -11.022442 -0.000000 -6.708491
LeftHandThumb1 -26.253704 0.000000 33.147579
RightShoulder -7.313206 38.585785 -49.252038
RightArm 91.020327 47.060238 128.730299
RightForeArm 43.622355 -0.000000 99.217576
RightHand 0.443584 -0.000000 12.235965
RightHandThumb1 -24.326973 -0.000000 -32.862282
LeftUpLeg -2.565491 -12.362834 -0.638386
LeftLeg 0.284664 -0.000000 -0.000000
LeftFoot -11.181560 9.470751 -23.780238
LeftToeBase 8.582999 -0.000000 -0.000000
RightUpLeg 5.870291 -15.583817 -3.635653
RightLeg -3.798907 -0.000000 0.000000
RightFoot -17.830821 -21.522077 12.385844
RightToeBase 5.390606 -0.000000 -0.000000
1075
root -1.518173 31.967607 -6.134867 6.501863 27.456795 5.537352
Spine -7.859831 -2.043016 -3.494317
Head 4.475777 -9.401882 -12.076934
LeftShoulder -11.039974 14.351975 6.630546
LeftArm 24.380426 41.663819 -72.332455
LeftForeArm -2.173039 -0.000000 13.034966
LeftHand -11.023575 -0.000000 -6.730336
LeftHandThumb1 -26.253704 0.000000 33.147579
RightShoulder -7.321253 38.598094 -49.257271
RightArm 90.957877 47.068437 128.637983
RightForeArm 43.664898 -0.000000 99.260407
RightHand 0.446885 -0.000000 12.184338
RightHandThumb1 -24.326973 -0.000000 -32.862282
LeftUpLeg -2.564462 -12.378866 -0.637879
LeftLeg 0.283375 -0.000000 -0.000000
LeftFoot -11.188180 9.461254 -23.788186
LeftToeBase 8.620358 -0.000000 -0.000000
RightUpLeg 5.877787 -15.577960 -3.638219
RightLeg -3.806857 -0.000000 0.000000
RightFoot -17.834007 -21.534986 12.376652
RightToeBase 5.409834 -0.000000 -0.000000
1076
root -1.515804 31.967408 -6.132096 6.508833 27.469154 5.545778
Spine -7.861729 -2.042142 -3.492060
Head 4.509538 -9.408176 -12.089823
LeftShoulder -11.037452 14.344444 6.635558
LeftArm 24.372859 41.679355 -72.337956
LeftForeArm -2.180272 -0.000000 13.038274
LeftHand -11.039356 -0.000000 -6.759444
LeftHandThumb1 -26.253704 0.000000 33.147579
RightShoulder -7.321792 38.596399 -49.259231
RightArm 90.919193 47.077766 128.540490
RightForeArm 43.731472 0.000000 99.303149
RightHand 0.425981 -0.000000 12.147363
RightHandThumb1 -24.326973 -0.000000 -32.862282
LeftUpLeg -2.566933 -12.397046 -0.646303
LeftLeg 0.294452 -0.000000 -0.000000
LeftFoot -11.198976 9.466625 -23.782154
LeftToeBase 8.580742 -0.000000 -0.000000
RightUpLeg 5.877242 -15.602260 -3.647058
RightLeg -3.793364 -0.000000 0.000000
RightFoot -17.843621 -21.527701 12.376801
RightToeBase 5.421325 -0.000000 -0.000000
1077
root -1.514369 31.967138 -6.128715 6.513345 27.475501 5.552445
Spine -7.860834 -2.036791 -3.489604
Head 4.542302 -9.408971 -12.097495
LeftShoulder -11.031772 14.348292 6.645137
LeftArm 24.379419 41.688129 -72.336310
LeftForeArm -2.176193 -0.000000 13.037565
LeftHand -11.083584 -0.000000 -6.857241
LeftHandThumb1 -26.253704 0.000000 33.147579
RightShoulder -7.337525 38.615833 -49.279068
RightArm 90.856859 47.086055 128.445358
RightForeArm 43.742272 -0.000000 99.352300
RightHand 0.475018 -0.000000 12.095572
RightHandThumb1 -24.326973 -0.000000 -32.862282
LeftUpLeg -2.566973 -12.403328 -0.651777
LeftLeg 0.302253 -0.000000 -0.000000
LeftFoot -11.206335 9.466082 -23.781286
LeftToeBase 8.599773 -0.000000 -0.000000
RightUpLeg 5.886971 -15.599373 -3.653061
RightLeg -3.798617 -0.000000 0.000000
RightFoot -17.841919 -21.540500 12.359404
RightToeBase 5.403741 -0.000000 -0.000000
1078
root -1.512751 31.966960 -6.125911 6.520343 27.483972 5.558589
Spine -7.858637 -2.034042 -3.483729
Head 4.568443 -9.398195 -12.106276
LeftShoulder -11.032882 14.336539 6.648422
LeftArm 24.367838 41.696505 -72.346816
LeftForeArm -2.142899 -0.000000 13.041273
LeftHand -11.091936 -0.000000 -6.848065
LeftHandThumb1 -26.253704 0.000000 33.147579
RightShoulder -7.350292 38.615257 -49.305560
RightArm 90.823345 47.099504 128.377474
RightForeArm 43.780491 0.000000 99.397299
RightHand 0.370161 0.000000 12.428259
RightHandThumb1 -24.326973 -0.000000 -32.862282
LeftUpLeg -2.569396 -12.403751 -0.656278
LeftLeg 0.309729 -0.000000 -0.000000
LeftFoot -11.201094 9.458570 -23.780089
LeftToeBase 8.560683 -0.000000 -0.000000
RightUpLeg 5.895042 -15.577125 -3.657986
RightLeg -3.808297 -0.000000 0.000000
RightFoot -17.847734 -21.559835 12.383198
RightToeBase 5.361870 -0.000000 -0.000000
1079
root -1.511162 31.966834 -6.122410 6.525360 27.490253 5.563991
Spine -7.858199 -2.027670 -3.483467
Head 4.606205 -9.401858 -12.105095
LeftShoulder -11.036620 14.346467 6.656333
LeftArm 24.383309 41.691045 -72.344129
LeftForeArm -2.153704 0.000000 13.042540
LeftHand -11.072057 -0.000000 -6.863071
LeftHandThumb1 -26.253704 0.000000 33.147579
RightShoulder -7.360281 38.637904 -49.317391
RightArm 90.755290 47.121899 128.257000
RightForeArm 43.666683 -0.000000 99.457505
RightHand 0.398383 0.000000 12.312596
RightHandThumb1 -24.326973 -0.000000 -32.862282
LeftUpLeg -2.566196 -12.400037 -0.661503
LeftLeg 0.310311 -0.000000 -0.000000
LeftFoot -11.214893 9.438829 -23.795754
LeftToeBase 8.617919 -0.000000 -0.000000
RightUpLeg 5.905080 -15.568715 -3.660906
RightLeg -3.818614 -0.000000 0.000000
RightFoot -17.854545 -21.564901 12.394197
RightToeBase 5.420002 -0.000000 -0.000000
